<?xml version="1.0" encoding="UTF-8" standalone="no"?>
<svg
   xmlns:dc="http://purl.org/dc/elements/1.1/"
   xmlns:cc="http://creativecommons.org/ns#"
   xmlns:rdf="http://www.w3.org/1999/02/22-rdf-syntax-ns#"
   xmlns:svg="http://www.w3.org/2000/svg"
   xmlns="http://www.w3.org/2000/svg"
   viewBox="0 0 64 64"
   version="1.1"
   id="svg4172"
   height="64"
   width="64">
  <defs
     id="defs4174">
    <style
       id="style2"
       type="text/css">@import url(&quot;https://fonts.googleapis.com/css2?family=Milonga:wght@400&quot;);</style>
  </defs>
  <metadata
     id="metadata4177">
    <rdf:RDF>
      <cc:Work
         rdf:about="">
        <dc:format>image/svg+xml</dc:format>
        <dc:type
           rdf:resource="http://purl.org/dc/dcmitype/StillImage" />
        <dc:title></dc:title>
      </cc:Work>
    </rdf:RDF>
  </metadata>
  <g
     id="layer1">
    <g
       transform="matrix(0.54690981,0,0,0.54690981,0.10943057,-0.155633)"
       id="layer1-2">
      <g
         transform="translate(-202.21343,-163.7846)"
         id="g3353">
        <g
           id="icon"
           transform="matrix(1.32,0,0,1.32,260.7,222.5)">
          <linearGradient
             y2="88.589996"
             x2="0"
             y1="0"
             x1="0"
             gradientUnits="userSpaceOnUse"
             id="SVGID_9">
            <stop
               id="stop8"
               style="stop-color:rgb(255,0,204);stop-opacity: 1"
               offset="0%" />
            <stop
               id="stop10"
               style="stop-color:rgb(51,51,153);stop-opacity: 1"
               offset="100%" />
          </linearGradient>
          <path
             id="path13"
             d="m 0.55,75.64 a 4.11,4.11 0 1 1 5.61,1.5 4.11,4.11 0 0 1 -5.61,-1.5 z m 87.34,0 a 4.11,4.11 0 1 1 -1.5,-5.64 4.1,4.1 0 0 1 1.5,5.61 z M 37.16,88.58 a 2.87,2.87 0 0 1 0,-5.74 l 25.77,0 9.35,-16.19 0,0 7.72,-13.35 -7.84,0 a 2.87,2.87 0 0 1 -2.71,-1.43 l -6.93,-12 -0.12,-0.22 -6,-10.35 -12.18,0 -0.37,0 -0.07,0 -0.07,0 -0.07,0 -0.07,0 -0.07,0 -0.07,0 0,0 -0.07,0 -0.06,0 -0.07,0 0,0 -0.07,0 0,0 -0.06,0 -0.1,-0.3 0,0 0,0 0,0 -0.06,0 0,0 -0.06,0 0,0 -0.06,0 0,0 -0.06,0 0,0 -0.06,0 0,0 -0.06,0 -0.06,0 0,0 0,0 0,0 -0.06,0 0,0 0,0 0,0 0,0 -0.05,-0.05 0,0 -0.06,-0.05 0,0 0,0 0,0 0,-0.05 0,0 0,-0.05 0,0 -0.41,-0.51 0,0 0,-0.05 0,0 -0.05,-0.06 0,0 0,-0.06 0,0 0,-0.05 0,0 0,-0.06 0,0 0,-0.06 0,0 0,-0.06 a 2.77,2.77 0 0 1 -0.37,-1.43 2.86,2.86 0 0 1 2.87,-2.87 l 13.64,0 a 2.94,2.94 0 0 1 0.51,0.05 l 0.31,0 0,0 0,0 0,0 0,0 0.05,0 0,0 0,0 0,0 0,0 0,0 0,0 0,0 0,0 0,0 0,0 0,0 0,0 0,0 0,0 0,0 0,0 0,0 0,0 0,0 0,0 0,0 0,0 0,0 0,0 0,0 0,0 0,0 0,0 0,0 0,0 0,0 0,0 0,0 0,0 0,0 0,0 0,0 0,0 0,0 0,0 0,0 0,0 0,0 0,0 a 2.79,2.79 0 0 1 0.54,0.68 l 6.81,11.79 a 2.39,2.39 0 0 1 0.13,0.21 l 6.11,10.57 12.35,0 a 2.87,2.87 0 0 1 2.56,4.31 l -10.17,18.28 0,0 -10.18,17.63 a 2.91,2.91 0 0 1 -1.94,1.42 l -28,0 z M 44.22,0 A 4.11,4.11 0 1 1 40.11,4.11 4.11,4.11 0 0 1 44.22,0 Z m 33.05,31.35 0,0 3.53,6.1 a 2.885065,2.885065 0 1 1 -5,2.88 L 69.8,29.89 62.94,18 l -34.1,0 4,7 0,0 a 2.9,2.9 0 0 1 0,2.88 l -6.93,12 -6.1,10.57 6.11,10.55 a 2.885065,2.885065 0 1 1 -5,2.88 L 14,51.87 l 0,0 A 2.88,2.88 0 0 1 14,49 L 20.93,37 27,26.42 l -5.68,-9.84 0,0 A 2.85,2.85 0 0 1 21,15.14 2.89,2.89 0 0 1 23.88,12.26 l 41.76,0 0,0 0.14,0 0.11,0.06 0,0 0,0 0,0 0,0 0,0 0,0 0,0 0,0 0,0 0.07,0 0,0 0,0 0,0 0,0 a 3,3 0 0 1 0.79,0.88 l 7.43,12.87 2.76,4.78 z M 23.72,88.59 A 2.86,2.86 0 0 1 21.35,87.15 L 11.17,69.51 1,51.87 l 0,0 A 2.88,2.88 0 0 1 1,49 L 14.71,25.23 a 2.885065,2.885065 0 1 1 5,2.88 l -3.55,6.09 0,0 -9.36,16.21 9.33,16.16 0,0.06 7.73,13.37 4,-6.92 a 0.41,0.41 0 0 0 0,-0.09 l 0,0 0,0 0,0 0,0 0,0 0,0 0,0 0,0 0,0 0,0 0,0 0,0 0,0 0,0 0,0 0,0 0,0 0,0 0,0 0,0 0,0 0,0 0,0 0,0 0,0 0,0 0,0 0,0 0,0 0.1,-0.08 0,0 0.05,0 0,0 0,0 0,0 0.11,-0.08 0,0 0.11,-0.07 0,0 a 2.84,2.84 0 0 1 1.42,-0.38 l 26.77,0 L 62.53,61 a 2.8825726,2.8825726 0 1 1 5,2.87 l -6.91,12 a 2.9,2.9 0 0 1 -2.52,1.48 l -26.1,0 -5.54,9.6 a 2.85,2.85 0 0 1 -1.18,1.3 2.79,2.79 0 0 1 -0.53,0.24 l -0.07,0 0,0 -0.07,0 0,0 -0.07,0 -0.07,0 -0.06,0 -0.7,0 z"
             transform="translate(-44.22,-44.3)"
             style="opacity:1;fill:url(#SVGID_9);fill-rule:evenodd;stroke:none;stroke-width:1;stroke-linecap:butt;stroke-linejoin:miter;stroke-miterlimit:4;stroke-dasharray:none;stroke-dashoffset:0" />
        </g>
        <g
           id="logo-name"
           transform="matrix(1.8,0,0,1.8,346.82,223.4)">
          <linearGradient
             y2="33.900002"
             x2="0"
             y1="0"
             x1="0"
             gradientTransform="translate(-1,-16.95)"
             gradientUnits="userSpaceOnUse"
             id="SVGID_4">
            <stop
               id="stop16"
               style="stop-color:rgb(255,255,255);stop-opacity: 1"
               offset="0%" />
          </linearGradient>
          <text
             id="text19"
             style="font-style:normal;font-weight:normal;font-size:30px;font-family:Milonga;white-space:pre;opacity:1;fill:url(#SVGID_4);fill-rule:nonzero;stroke:none;stroke-width:1;stroke-linecap:butt;stroke-linejoin:miter;stroke-miterlimit:4;stroke-dasharray:none;stroke-dashoffset:0"
             font-weight="normal"
             font-style="normal"
             font-size="30"
             xml:space="preserve" />
        </g>
      </g>
    </g>
  </g>
</svg>
